General
Complete name                            : /Volumes/Media HD/Tests/02 Test Project (PY) 3/2023-06-17 Laura & Sarah/03 MEDIA/01 VIDEO/CAM 2/A001_04080255_C079.mp4
Format                                   : MPEG-4
Format profile                           : Base Media
Codec ID                                 : isom (isom/iso2/mp41)
File size                                : 392 MiB
Duration                                 : 55 s 500 ms
Overall bit rate                         : 59.3 Mb/s
Frame rate                               : 24.000 FPS
Writing application                      : Lavf61.7.100

Video
ID                                       : 1
Format                                   : HEVC
Format/Info                              : High Efficiency Video Coding
Format profile                           : Main 10@L5.1@Main
Codec ID                                 : hvc1
Codec ID/Info                            : High Efficiency Video Coding
Duration                                 : 55 s 500 ms
Bit rate                                 : 58.2 Mb/s
Width                                    : 4 096 pixels
Height                                   : 2 160 pixels
Display aspect ratio                     : 1.896
Frame rate mode                          : Constant
Frame rate                               : 24.000 FPS
Color space                              : YUV
Chroma subsampling                       : 4:2:0
Bit depth                                : 10 bits
Scan type                                : Progressive
Bits/(Pixel*Frame)                       : 0.274
Stream size                              : 385 MiB (98%)
Writing library                          : Lavc61.19.101 hevc_videotoolbox
Language                                 : English
Color range                              : Limited
Color primaries                          : BT.709
Transfer characteristics                 : BT.709
Matrix coefficients                      : BT.709
Codec configuration box                  : hvcC

Audio
ID                                       : 2
Format                                   : PCM
Format settings                          : Little / Signed
Codec ID                                 : ipcm
Duration                                 : 27 s 709 ms
Bit rate mode                            : Constant
Bit rate                                 : 2 304 kb/s
Channel(s)                               : 2 channels
Channel layout                           : L R
Sampling rate                            : 48.0 kHz
Bit depth                                : 24 bits
Stream size                              : 7.61 MiB (2%)
Language                                 : English
Default                                  : Yes
Alternate group                          : 1

Other
ID                                       : 3
Type                                     : Time code
Format                                   : QuickTime TC
Duration                                 : 55 s 500 ms
Frame rate                               : 24.000 FPS
Time code of first frame                 : 02:55:39:09
Time code of last frame                  : 02:56:34:20
Time code, stripped                      : Yes
Language                                 : English
Default                                  : No

